# xmcd
#
# Track frame offsets: 
#        150
#        19554
#        32313
#        43897
#        56856
#        71865
#        79984
#        92925
#        101341
#        112745
#        128619
#        141715
#
# Disc length: 1967 seconds
#
# Revision: 0
# Processed by: cddbd v1.4PL0 Copyright (c) Steve Scherf et al.
# Submitted via: ExactAudioCopy v0.90b4
#
DISCID=a307ad0c
DTITLE=Paul Sadler - Beautiful Melodies For Hammered Dulcimer and Guitar
DTITLE=Me and All My Friends
DYEAR=1900
DGENRE=Country
TTITLE0=The Streets Of Laredo
TTITLE1=Windy and Warm
TTITLE2=Theme From Moulin Rouge
TTITLE3=Charade
TTITLE4=Sleepwalk
TTITLE5=Salida
TTITLE6=Stranger On The Shore
TTITLE7=Loch Lomond
TTITLE8=Tammy
TTITLE9=Wayfaring Stranger
TTITLE10=The Good, The Bad and The Ugly
TTITLE11=Windy and Warm II
EXTD=
EXTT0=
EXTT1=
EXTT2=
EXTT3=
EXTT4=
EXTT5=
EXTT6=
EXTT7=
EXTT8=
EXTT9=
EXTT10=
EXTT11=
PLAYORDER=
